<?xml version="1.0" standalone="no"?><!DOCTYPE svg PUBLIC "-//W3C//DTD SVG 1.1//EN" "http://www.w3.org/Graphics/SVG/1.1/DTD/svg11.dtd"><svg t="1610580403907" class="icon" viewBox="0 0 1024 1024" version="1.1" xmlns="http://www.w3.org/2000/svg" p-id="2652" xmlns:xlink="http://www.w3.org/1999/xlink" width="200" height="200"><defs><style type="text/css"></style></defs><path d="M512 199.10656c-172.52352 0-312.89344 140.35968-312.89344 312.89344S339.47648 824.89344 512 824.89344 824.89344 684.52352 824.89344 512 684.52352 199.10656 512 199.10656zM512 768c-141.16864 0-256-114.83136-256-256s114.83136-256 256-256 256 114.83136 256 256-114.83136 256-256 256zM170.67008 512a28.42624 28.42624 0 0 0-28.44672-28.44672H28.44672a28.44672 28.44672 0 0 0 0 56.89344h113.77664A28.42624 28.42624 0 0 0 170.67008 512zM995.55328 483.55328H881.77664a28.44672 28.44672 0 1 0 0 56.89344h113.77664a28.44672 28.44672 0 0 0 0-56.89344zM230.47168 753.3056l-80.49664 80.49664a28.4416 28.4416 0 1 0 40.22272 40.22272l80.49664-80.49664a28.4416 28.4416 0 1 0-40.22272-40.22272zM773.41696 279.02976a28.35456 28.35456 0 0 0 20.11136-8.33536l80.49664-80.49664a28.4416 28.4416 0 1 0-40.22272-40.22272l-80.49664 80.49664a28.44672 28.44672 0 0 0 20.11136 48.55808zM512 853.32992a28.42624 28.42624 0 0 0-28.44672 28.44672v113.77664a28.44672 28.44672 0 1 0 56.89344 0V881.77664A28.42624 28.42624 0 0 0 512 853.32992zM512 170.67008a28.42624 28.42624 0 0 0 28.44672-28.44672V28.44672a28.44672 28.44672 0 0 0-56.89344 0v113.77664A28.42624 28.42624 0 0 0 512 170.67008zM793.52832 753.3056a28.4416 28.4416 0 0 0-40.22272 40.22272l80.49664 80.49664a28.4416 28.4416 0 1 0 40.22272-40.22272z" p-id="2653" fill="#ffffff"></path><path d="M230.47168 270.6944a28.4416 28.4416 0 1 0 40.22272-40.22272l-80.49664-80.49664a28.4416 28.4416 0 0 0-40.22272 40.22272z" p-id="2654" fill="#ffffff"></path></svg>