<?xml version="1.0" standalone="no"?><!DOCTYPE svg PUBLIC "-//W3C//DTD SVG 1.1//EN" "http://www.w3.org/Graphics/SVG/1.1/DTD/svg11.dtd"><svg t="1610526878921" class="icon" viewBox="0 0 1024 1024" version="1.1" xmlns="http://www.w3.org/2000/svg" p-id="5599" xmlns:xlink="http://www.w3.org/1999/xlink" width="200" height="200"><defs><style type="text/css"></style></defs><path d="M760.3 218.7c-10.1 0-20 0.6-29.6 1.7-0.3-31.4-40.9-56.7-90.9-56.7-18.8 0-36.3 3.6-50.8 9.7-23-23.8-60.8-39.3-103.6-39.3-70.1 0-126.9 41.7-126.9 93.1 0 3.5 0.3 7 0.8 10.5-28.2-9.4-60.1-14.7-93.9-14.7C150.8 222.9 58 283.5 58 358.3c0 67.7 76.1 123.8 175.5 133.8 34.3 78.9 149.2 137 285.6 137 107 0 200.7-35.7 252.7-89.1 106.7-4.8 191.4-74.8 191.4-160.5 0.2-88.8-90.8-160.8-202.9-160.8zM273.2 637.1c-9.6-6.7-22.8-4.3-29.4 5.3L108.4 836.9c-6.7 9.6-4.3 22.8 5.3 29.4 3.7 2.6 7.9 3.8 12.1 3.8 6.7 0 13.3-3.2 17.4-9.1l135.4-194.6c6.5-9.5 4.2-22.7-5.4-29.3zM486.8 658.2c-9.6-6.7-22.8-4.3-29.4 5.3L322 858.1c-6.7 9.6-4.3 22.8 5.3 29.4 3.7 2.6 7.9 3.8 12.1 3.8 6.7 0 13.3-3.2 17.4-9.1l135.4-194.6c6.6-9.5 4.2-22.7-5.4-29.4zM700.5 645.5c-9.6-6.7-22.8-4.3-29.4 5.3L535.6 845.4c-6.7 9.6-4.3 22.8 5.3 29.4 3.7 2.6 7.9 3.8 12.1 3.8 6.7 0 13.3-3.2 17.4-9.1L705.7 675c6.7-9.6 4.3-22.8-5.2-29.5z" p-id="5600"></path></svg>